%TF.GenerationSoftware,KiCad,Pcbnew,10.0.6*%
%TF.CreationDate,2026-09-25T14:55:58+08:00*%
%TF.ProjectId,patch_2x2_5g8,70617463-685f-4327-9832-5f3567382e6b,rev?*%
%TF.SameCoordinates,Original*%
%TF.FileFunction,Legend,Bot*%
%TF.FilePolarity,Positive*%
%FSLAX46Y46*%
G04 Gerber Fmt 4.6, Leading zero omitted, Abs format (unit mm)*
G04 Created by KiCad (PCBNEW 10.0.6) date 2026-09-25 14:55:58*
%MOMM*%
%LPD*%
G01*
G04 APERTURE LIST*
%ADD10C,0.150000*%
%ADD11C,0.224999*%
%ADD12C,3.200000*%
%ADD13R,1.500000X5.080000*%
G04 APERTURE END LIST*
D10*
X114333333Y-102454819D02*
X114095238Y-103454819D01*
X114095238Y-103454819D02*
X113904762Y-102740533D01*
X113904762Y-102740533D02*
X113714286Y-103454819D01*
X113714286Y-103454819D02*
X113476191Y-102454819D01*
X111809524Y-103454819D02*
X112380952Y-103454819D01*
X112095238Y-103454819D02*
X112095238Y-102454819D01*
X112095238Y-102454819D02*
X112190476Y-102597676D01*
X112190476Y-102597676D02*
X112285714Y-102692914D01*
X112285714Y-102692914D02*
X112380952Y-102740533D01*
X110904762Y-102454819D02*
X111380952Y-102454819D01*
X111380952Y-102454819D02*
X111428571Y-102931009D01*
X111428571Y-102931009D02*
X111380952Y-102883390D01*
X111380952Y-102883390D02*
X111285714Y-102835771D01*
X111285714Y-102835771D02*
X111047619Y-102835771D01*
X111047619Y-102835771D02*
X110952381Y-102883390D01*
X110952381Y-102883390D02*
X110904762Y-102931009D01*
X110904762Y-102931009D02*
X110857143Y-103026247D01*
X110857143Y-103026247D02*
X110857143Y-103264342D01*
X110857143Y-103264342D02*
X110904762Y-103359580D01*
X110904762Y-103359580D02*
X110952381Y-103407200D01*
X110952381Y-103407200D02*
X111047619Y-103454819D01*
X111047619Y-103454819D02*
X111285714Y-103454819D01*
X111285714Y-103454819D02*
X111380952Y-103407200D01*
X111380952Y-103407200D02*
X111428571Y-103359580D01*
X110428571Y-103359580D02*
X110380952Y-103407200D01*
X110380952Y-103407200D02*
X110428571Y-103454819D01*
X110428571Y-103454819D02*
X110476190Y-103407200D01*
X110476190Y-103407200D02*
X110428571Y-103359580D01*
X110428571Y-103359580D02*
X110428571Y-103454819D01*
X109809524Y-102883390D02*
X109904762Y-102835771D01*
X109904762Y-102835771D02*
X109952381Y-102788152D01*
X109952381Y-102788152D02*
X110000000Y-102692914D01*
X110000000Y-102692914D02*
X110000000Y-102645295D01*
X110000000Y-102645295D02*
X109952381Y-102550057D01*
X109952381Y-102550057D02*
X109904762Y-102502438D01*
X109904762Y-102502438D02*
X109809524Y-102454819D01*
X109809524Y-102454819D02*
X109619048Y-102454819D01*
X109619048Y-102454819D02*
X109523810Y-102502438D01*
X109523810Y-102502438D02*
X109476191Y-102550057D01*
X109476191Y-102550057D02*
X109428572Y-102645295D01*
X109428572Y-102645295D02*
X109428572Y-102692914D01*
X109428572Y-102692914D02*
X109476191Y-102788152D01*
X109476191Y-102788152D02*
X109523810Y-102835771D01*
X109523810Y-102835771D02*
X109619048Y-102883390D01*
X109619048Y-102883390D02*
X109809524Y-102883390D01*
X109809524Y-102883390D02*
X109904762Y-102931009D01*
X109904762Y-102931009D02*
X109952381Y-102978628D01*
X109952381Y-102978628D02*
X110000000Y-103073866D01*
X110000000Y-103073866D02*
X110000000Y-103264342D01*
X110000000Y-103264342D02*
X109952381Y-103359580D01*
X109952381Y-103359580D02*
X109904762Y-103407200D01*
X109904762Y-103407200D02*
X109809524Y-103454819D01*
X109809524Y-103454819D02*
X109619048Y-103454819D01*
X109619048Y-103454819D02*
X109523810Y-103407200D01*
X109523810Y-103407200D02*
X109476191Y-103359580D01*
X109476191Y-103359580D02*
X109428572Y-103264342D01*
X109428572Y-103264342D02*
X109428572Y-103073866D01*
X109428572Y-103073866D02*
X109476191Y-102978628D01*
X109476191Y-102978628D02*
X109523810Y-102931009D01*
X109523810Y-102931009D02*
X109619048Y-102883390D01*
X108571429Y-102454819D02*
X108761905Y-102454819D01*
X108761905Y-102454819D02*
X108857143Y-102502438D01*
X108857143Y-102502438D02*
X108904762Y-102550057D01*
X108904762Y-102550057D02*
X109000000Y-102692914D01*
X109000000Y-102692914D02*
X109047619Y-102883390D01*
X109047619Y-102883390D02*
X109047619Y-103264342D01*
X109047619Y-103264342D02*
X109000000Y-103359580D01*
X109000000Y-103359580D02*
X108952381Y-103407200D01*
X108952381Y-103407200D02*
X108857143Y-103454819D01*
X108857143Y-103454819D02*
X108666667Y-103454819D01*
X108666667Y-103454819D02*
X108571429Y-103407200D01*
X108571429Y-103407200D02*
X108523810Y-103359580D01*
X108523810Y-103359580D02*
X108476191Y-103264342D01*
X108476191Y-103264342D02*
X108476191Y-103026247D01*
X108476191Y-103026247D02*
X108523810Y-102931009D01*
X108523810Y-102931009D02*
X108571429Y-102883390D01*
X108571429Y-102883390D02*
X108666667Y-102835771D01*
X108666667Y-102835771D02*
X108857143Y-102835771D01*
X108857143Y-102835771D02*
X108952381Y-102883390D01*
X108952381Y-102883390D02*
X109000000Y-102931009D01*
X109000000Y-102931009D02*
X109047619Y-103026247D01*
X106047619Y-103454819D02*
X106523809Y-103454819D01*
X106523809Y-103454819D02*
X106523809Y-102454819D01*
X104428571Y-103454819D02*
X104999999Y-103454819D01*
X104714285Y-103454819D02*
X104714285Y-102454819D01*
X104714285Y-102454819D02*
X104809523Y-102597676D01*
X104809523Y-102597676D02*
X104904761Y-102692914D01*
X104904761Y-102692914D02*
X104999999Y-102740533D01*
X103476190Y-103454819D02*
X104047618Y-103454819D01*
X103761904Y-103454819D02*
X103761904Y-102454819D01*
X103761904Y-102454819D02*
X103857142Y-102597676D01*
X103857142Y-102597676D02*
X103952380Y-102692914D01*
X103952380Y-102692914D02*
X104047618Y-102740533D01*
X103047618Y-103359580D02*
X102999999Y-103407200D01*
X102999999Y-103407200D02*
X103047618Y-103454819D01*
X103047618Y-103454819D02*
X103095237Y-103407200D01*
X103095237Y-103407200D02*
X103047618Y-103359580D01*
X103047618Y-103359580D02*
X103047618Y-103454819D01*
X102523809Y-103454819D02*
X102333333Y-103454819D01*
X102333333Y-103454819D02*
X102238095Y-103407200D01*
X102238095Y-103407200D02*
X102190476Y-103359580D01*
X102190476Y-103359580D02*
X102095238Y-103216723D01*
X102095238Y-103216723D02*
X102047619Y-103026247D01*
X102047619Y-103026247D02*
X102047619Y-102645295D01*
X102047619Y-102645295D02*
X102095238Y-102550057D01*
X102095238Y-102550057D02*
X102142857Y-102502438D01*
X102142857Y-102502438D02*
X102238095Y-102454819D01*
X102238095Y-102454819D02*
X102428571Y-102454819D01*
X102428571Y-102454819D02*
X102523809Y-102502438D01*
X102523809Y-102502438D02*
X102571428Y-102550057D01*
X102571428Y-102550057D02*
X102619047Y-102645295D01*
X102619047Y-102645295D02*
X102619047Y-102883390D01*
X102619047Y-102883390D02*
X102571428Y-102978628D01*
X102571428Y-102978628D02*
X102523809Y-103026247D01*
X102523809Y-103026247D02*
X102428571Y-103073866D01*
X102428571Y-103073866D02*
X102238095Y-103073866D01*
X102238095Y-103073866D02*
X102142857Y-103026247D01*
X102142857Y-103026247D02*
X102095238Y-102978628D01*
X102095238Y-102978628D02*
X102047619Y-102883390D01*
X101095238Y-103454819D02*
X101666666Y-103454819D01*
X101380952Y-103454819D02*
X101380952Y-102454819D01*
X101380952Y-102454819D02*
X101476190Y-102597676D01*
X101476190Y-102597676D02*
X101571428Y-102692914D01*
X101571428Y-102692914D02*
X101666666Y-102740533D01*
X99142856Y-103454819D02*
X99142856Y-102788152D01*
X99142856Y-102454819D02*
X99190475Y-102502438D01*
X99190475Y-102502438D02*
X99142856Y-102550057D01*
X99142856Y-102550057D02*
X99095237Y-102502438D01*
X99095237Y-102502438D02*
X99142856Y-102454819D01*
X99142856Y-102454819D02*
X99142856Y-102550057D01*
X98666666Y-102788152D02*
X98666666Y-103454819D01*
X98666666Y-102883390D02*
X98619047Y-102835771D01*
X98619047Y-102835771D02*
X98523809Y-102788152D01*
X98523809Y-102788152D02*
X98380952Y-102788152D01*
X98380952Y-102788152D02*
X98285714Y-102835771D01*
X98285714Y-102835771D02*
X98238095Y-102931009D01*
X98238095Y-102931009D02*
X98238095Y-103454819D01*
X97809523Y-103407200D02*
X97714285Y-103454819D01*
X97714285Y-103454819D02*
X97523809Y-103454819D01*
X97523809Y-103454819D02*
X97428571Y-103407200D01*
X97428571Y-103407200D02*
X97380952Y-103311961D01*
X97380952Y-103311961D02*
X97380952Y-103264342D01*
X97380952Y-103264342D02*
X97428571Y-103169104D01*
X97428571Y-103169104D02*
X97523809Y-103121485D01*
X97523809Y-103121485D02*
X97666666Y-103121485D01*
X97666666Y-103121485D02*
X97761904Y-103073866D01*
X97761904Y-103073866D02*
X97809523Y-102978628D01*
X97809523Y-102978628D02*
X97809523Y-102931009D01*
X97809523Y-102931009D02*
X97761904Y-102835771D01*
X97761904Y-102835771D02*
X97666666Y-102788152D01*
X97666666Y-102788152D02*
X97523809Y-102788152D01*
X97523809Y-102788152D02*
X97428571Y-102835771D01*
X96571428Y-103407200D02*
X96666666Y-103454819D01*
X96666666Y-103454819D02*
X96857142Y-103454819D01*
X96857142Y-103454819D02*
X96952380Y-103407200D01*
X96952380Y-103407200D02*
X96999999Y-103311961D01*
X96999999Y-103311961D02*
X96999999Y-102931009D01*
X96999999Y-102931009D02*
X96952380Y-102835771D01*
X96952380Y-102835771D02*
X96857142Y-102788152D01*
X96857142Y-102788152D02*
X96666666Y-102788152D01*
X96666666Y-102788152D02*
X96571428Y-102835771D01*
X96571428Y-102835771D02*
X96523809Y-102931009D01*
X96523809Y-102931009D02*
X96523809Y-103026247D01*
X96523809Y-103026247D02*
X96999999Y-103121485D01*
X96238094Y-102788152D02*
X95857142Y-102788152D01*
X96095237Y-102454819D02*
X96095237Y-103311961D01*
X96095237Y-103311961D02*
X96047618Y-103407200D01*
X96047618Y-103407200D02*
X95952380Y-103454819D01*
X95952380Y-103454819D02*
X95857142Y-103454819D01*
X94857141Y-102454819D02*
X94238094Y-102454819D01*
X94238094Y-102454819D02*
X94571427Y-102835771D01*
X94571427Y-102835771D02*
X94428570Y-102835771D01*
X94428570Y-102835771D02*
X94333332Y-102883390D01*
X94333332Y-102883390D02*
X94285713Y-102931009D01*
X94285713Y-102931009D02*
X94238094Y-103026247D01*
X94238094Y-103026247D02*
X94238094Y-103264342D01*
X94238094Y-103264342D02*
X94285713Y-103359580D01*
X94285713Y-103359580D02*
X94333332Y-103407200D01*
X94333332Y-103407200D02*
X94428570Y-103454819D01*
X94428570Y-103454819D02*
X94714284Y-103454819D01*
X94714284Y-103454819D02*
X94809522Y-103407200D01*
X94809522Y-103407200D02*
X94857141Y-103359580D01*
X93809522Y-103359580D02*
X93761903Y-103407200D01*
X93761903Y-103407200D02*
X93809522Y-103454819D01*
X93809522Y-103454819D02*
X93857141Y-103407200D01*
X93857141Y-103407200D02*
X93809522Y-103359580D01*
X93809522Y-103359580D02*
X93809522Y-103454819D01*
X92904761Y-102454819D02*
X93095237Y-102454819D01*
X93095237Y-102454819D02*
X93190475Y-102502438D01*
X93190475Y-102502438D02*
X93238094Y-102550057D01*
X93238094Y-102550057D02*
X93333332Y-102692914D01*
X93333332Y-102692914D02*
X93380951Y-102883390D01*
X93380951Y-102883390D02*
X93380951Y-103264342D01*
X93380951Y-103264342D02*
X93333332Y-103359580D01*
X93333332Y-103359580D02*
X93285713Y-103407200D01*
X93285713Y-103407200D02*
X93190475Y-103454819D01*
X93190475Y-103454819D02*
X92999999Y-103454819D01*
X92999999Y-103454819D02*
X92904761Y-103407200D01*
X92904761Y-103407200D02*
X92857142Y-103359580D01*
X92857142Y-103359580D02*
X92809523Y-103264342D01*
X92809523Y-103264342D02*
X92809523Y-103026247D01*
X92809523Y-103026247D02*
X92857142Y-102931009D01*
X92857142Y-102931009D02*
X92904761Y-102883390D01*
X92904761Y-102883390D02*
X92999999Y-102835771D01*
X92999999Y-102835771D02*
X93190475Y-102835771D01*
X93190475Y-102835771D02*
X93285713Y-102883390D01*
X93285713Y-102883390D02*
X93333332Y-102931009D01*
X93333332Y-102931009D02*
X93380951Y-103026247D01*
X92238094Y-102883390D02*
X92333332Y-102835771D01*
X92333332Y-102835771D02*
X92380951Y-102788152D01*
X92380951Y-102788152D02*
X92428570Y-102692914D01*
X92428570Y-102692914D02*
X92428570Y-102645295D01*
X92428570Y-102645295D02*
X92380951Y-102550057D01*
X92380951Y-102550057D02*
X92333332Y-102502438D01*
X92333332Y-102502438D02*
X92238094Y-102454819D01*
X92238094Y-102454819D02*
X92047618Y-102454819D01*
X92047618Y-102454819D02*
X91952380Y-102502438D01*
X91952380Y-102502438D02*
X91904761Y-102550057D01*
X91904761Y-102550057D02*
X91857142Y-102645295D01*
X91857142Y-102645295D02*
X91857142Y-102692914D01*
X91857142Y-102692914D02*
X91904761Y-102788152D01*
X91904761Y-102788152D02*
X91952380Y-102835771D01*
X91952380Y-102835771D02*
X92047618Y-102883390D01*
X92047618Y-102883390D02*
X92238094Y-102883390D01*
X92238094Y-102883390D02*
X92333332Y-102931009D01*
X92333332Y-102931009D02*
X92380951Y-102978628D01*
X92380951Y-102978628D02*
X92428570Y-103073866D01*
X92428570Y-103073866D02*
X92428570Y-103264342D01*
X92428570Y-103264342D02*
X92380951Y-103359580D01*
X92380951Y-103359580D02*
X92333332Y-103407200D01*
X92333332Y-103407200D02*
X92238094Y-103454819D01*
X92238094Y-103454819D02*
X92047618Y-103454819D01*
X92047618Y-103454819D02*
X91952380Y-103407200D01*
X91952380Y-103407200D02*
X91904761Y-103359580D01*
X91904761Y-103359580D02*
X91857142Y-103264342D01*
X91857142Y-103264342D02*
X91857142Y-103073866D01*
X91857142Y-103073866D02*
X91904761Y-102978628D01*
X91904761Y-102978628D02*
X91952380Y-102931009D01*
X91952380Y-102931009D02*
X92047618Y-102883390D01*
X89523808Y-103407200D02*
X89619046Y-103454819D01*
X89619046Y-103454819D02*
X89809522Y-103454819D01*
X89809522Y-103454819D02*
X89904760Y-103407200D01*
X89904760Y-103407200D02*
X89952379Y-103311961D01*
X89952379Y-103311961D02*
X89952379Y-102931009D01*
X89952379Y-102931009D02*
X89904760Y-102835771D01*
X89904760Y-102835771D02*
X89809522Y-102788152D01*
X89809522Y-102788152D02*
X89619046Y-102788152D01*
X89619046Y-102788152D02*
X89523808Y-102835771D01*
X89523808Y-102835771D02*
X89476189Y-102931009D01*
X89476189Y-102931009D02*
X89476189Y-103026247D01*
X89476189Y-103026247D02*
X89952379Y-103121485D01*
X89047617Y-103454819D02*
X89047617Y-102788152D01*
X89047617Y-102978628D02*
X88999998Y-102883390D01*
X88999998Y-102883390D02*
X88952379Y-102835771D01*
X88952379Y-102835771D02*
X88857141Y-102788152D01*
X88857141Y-102788152D02*
X88761903Y-102788152D01*
X87238093Y-102788152D02*
X87238093Y-103454819D01*
X87476188Y-102407200D02*
X87714283Y-103121485D01*
X87714283Y-103121485D02*
X87095236Y-103121485D01*
X86714283Y-103359580D02*
X86666664Y-103407200D01*
X86666664Y-103407200D02*
X86714283Y-103454819D01*
X86714283Y-103454819D02*
X86761902Y-103407200D01*
X86761902Y-103407200D02*
X86714283Y-103359580D01*
X86714283Y-103359580D02*
X86714283Y-103454819D01*
X86333331Y-102454819D02*
X85714284Y-102454819D01*
X85714284Y-102454819D02*
X86047617Y-102835771D01*
X86047617Y-102835771D02*
X85904760Y-102835771D01*
X85904760Y-102835771D02*
X85809522Y-102883390D01*
X85809522Y-102883390D02*
X85761903Y-102931009D01*
X85761903Y-102931009D02*
X85714284Y-103026247D01*
X85714284Y-103026247D02*
X85714284Y-103264342D01*
X85714284Y-103264342D02*
X85761903Y-103359580D01*
X85761903Y-103359580D02*
X85809522Y-103407200D01*
X85809522Y-103407200D02*
X85904760Y-103454819D01*
X85904760Y-103454819D02*
X86190474Y-103454819D01*
X86190474Y-103454819D02*
X86285712Y-103407200D01*
X86285712Y-103407200D02*
X86333331Y-103359580D01*
X113119049Y-105288152D02*
X112738097Y-105288152D01*
X112976192Y-104954819D02*
X112976192Y-105811961D01*
X112976192Y-105811961D02*
X112928573Y-105907200D01*
X112928573Y-105907200D02*
X112833335Y-105954819D01*
X112833335Y-105954819D02*
X112738097Y-105954819D01*
X112404763Y-105954819D02*
X112404763Y-105288152D01*
X112404763Y-105478628D02*
X112357144Y-105383390D01*
X112357144Y-105383390D02*
X112309525Y-105335771D01*
X112309525Y-105335771D02*
X112214287Y-105288152D01*
X112214287Y-105288152D02*
X112119049Y-105288152D01*
X111785715Y-105954819D02*
X111785715Y-105288152D01*
X111785715Y-104954819D02*
X111833334Y-105002438D01*
X111833334Y-105002438D02*
X111785715Y-105050057D01*
X111785715Y-105050057D02*
X111738096Y-105002438D01*
X111738096Y-105002438D02*
X111785715Y-104954819D01*
X111785715Y-104954819D02*
X111785715Y-105050057D01*
X111309525Y-105954819D02*
X111309525Y-105288152D01*
X111309525Y-105383390D02*
X111261906Y-105335771D01*
X111261906Y-105335771D02*
X111166668Y-105288152D01*
X111166668Y-105288152D02*
X111023811Y-105288152D01*
X111023811Y-105288152D02*
X110928573Y-105335771D01*
X110928573Y-105335771D02*
X110880954Y-105431009D01*
X110880954Y-105431009D02*
X110880954Y-105954819D01*
X110880954Y-105431009D02*
X110833335Y-105335771D01*
X110833335Y-105335771D02*
X110738097Y-105288152D01*
X110738097Y-105288152D02*
X110595240Y-105288152D01*
X110595240Y-105288152D02*
X110500001Y-105335771D01*
X110500001Y-105335771D02*
X110452382Y-105431009D01*
X110452382Y-105431009D02*
X110452382Y-105954819D01*
X108738097Y-105954819D02*
X109214287Y-105954819D01*
X109214287Y-105954819D02*
X109214287Y-104954819D01*
X107357144Y-106335771D02*
X107404763Y-106288152D01*
X107404763Y-106288152D02*
X107500001Y-106145295D01*
X107500001Y-106145295D02*
X107547620Y-106050057D01*
X107547620Y-106050057D02*
X107595239Y-105907200D01*
X107595239Y-105907200D02*
X107642858Y-105669104D01*
X107642858Y-105669104D02*
X107642858Y-105478628D01*
X107642858Y-105478628D02*
X107595239Y-105240533D01*
X107595239Y-105240533D02*
X107547620Y-105097676D01*
X107547620Y-105097676D02*
X107500001Y-105002438D01*
X107500001Y-105002438D02*
X107404763Y-104859580D01*
X107404763Y-104859580D02*
X107357144Y-104811961D01*
X106976191Y-105954819D02*
X106976191Y-105288152D01*
X106976191Y-105478628D02*
X106928572Y-105383390D01*
X106928572Y-105383390D02*
X106880953Y-105335771D01*
X106880953Y-105335771D02*
X106785715Y-105288152D01*
X106785715Y-105288152D02*
X106690477Y-105288152D01*
X105928572Y-105954819D02*
X105928572Y-105431009D01*
X105928572Y-105431009D02*
X105976191Y-105335771D01*
X105976191Y-105335771D02*
X106071429Y-105288152D01*
X106071429Y-105288152D02*
X106261905Y-105288152D01*
X106261905Y-105288152D02*
X106357143Y-105335771D01*
X105928572Y-105907200D02*
X106023810Y-105954819D01*
X106023810Y-105954819D02*
X106261905Y-105954819D01*
X106261905Y-105954819D02*
X106357143Y-105907200D01*
X106357143Y-105907200D02*
X106404762Y-105811961D01*
X106404762Y-105811961D02*
X106404762Y-105716723D01*
X106404762Y-105716723D02*
X106357143Y-105621485D01*
X106357143Y-105621485D02*
X106261905Y-105573866D01*
X106261905Y-105573866D02*
X106023810Y-105573866D01*
X106023810Y-105573866D02*
X105928572Y-105526247D01*
X105023810Y-105954819D02*
X105023810Y-104954819D01*
X105023810Y-105907200D02*
X105119048Y-105954819D01*
X105119048Y-105954819D02*
X105309524Y-105954819D01*
X105309524Y-105954819D02*
X105404762Y-105907200D01*
X105404762Y-105907200D02*
X105452381Y-105859580D01*
X105452381Y-105859580D02*
X105500000Y-105764342D01*
X105500000Y-105764342D02*
X105500000Y-105478628D01*
X105500000Y-105478628D02*
X105452381Y-105383390D01*
X105452381Y-105383390D02*
X105404762Y-105335771D01*
X105404762Y-105335771D02*
X105309524Y-105288152D01*
X105309524Y-105288152D02*
X105119048Y-105288152D01*
X105119048Y-105288152D02*
X105023810Y-105335771D01*
X104547619Y-105954819D02*
X104547619Y-105288152D01*
X104547619Y-104954819D02*
X104595238Y-105002438D01*
X104595238Y-105002438D02*
X104547619Y-105050057D01*
X104547619Y-105050057D02*
X104500000Y-105002438D01*
X104500000Y-105002438D02*
X104547619Y-104954819D01*
X104547619Y-104954819D02*
X104547619Y-105050057D01*
X103642858Y-105954819D02*
X103642858Y-105431009D01*
X103642858Y-105431009D02*
X103690477Y-105335771D01*
X103690477Y-105335771D02*
X103785715Y-105288152D01*
X103785715Y-105288152D02*
X103976191Y-105288152D01*
X103976191Y-105288152D02*
X104071429Y-105335771D01*
X103642858Y-105907200D02*
X103738096Y-105954819D01*
X103738096Y-105954819D02*
X103976191Y-105954819D01*
X103976191Y-105954819D02*
X104071429Y-105907200D01*
X104071429Y-105907200D02*
X104119048Y-105811961D01*
X104119048Y-105811961D02*
X104119048Y-105716723D01*
X104119048Y-105716723D02*
X104071429Y-105621485D01*
X104071429Y-105621485D02*
X103976191Y-105573866D01*
X103976191Y-105573866D02*
X103738096Y-105573866D01*
X103738096Y-105573866D02*
X103642858Y-105526247D01*
X103309524Y-105288152D02*
X102928572Y-105288152D01*
X103166667Y-104954819D02*
X103166667Y-105811961D01*
X103166667Y-105811961D02*
X103119048Y-105907200D01*
X103119048Y-105907200D02*
X103023810Y-105954819D01*
X103023810Y-105954819D02*
X102928572Y-105954819D01*
X102595238Y-105954819D02*
X102595238Y-105288152D01*
X102595238Y-104954819D02*
X102642857Y-105002438D01*
X102642857Y-105002438D02*
X102595238Y-105050057D01*
X102595238Y-105050057D02*
X102547619Y-105002438D01*
X102547619Y-105002438D02*
X102595238Y-104954819D01*
X102595238Y-104954819D02*
X102595238Y-105050057D01*
X102119048Y-105288152D02*
X102119048Y-105954819D01*
X102119048Y-105383390D02*
X102071429Y-105335771D01*
X102071429Y-105335771D02*
X101976191Y-105288152D01*
X101976191Y-105288152D02*
X101833334Y-105288152D01*
X101833334Y-105288152D02*
X101738096Y-105335771D01*
X101738096Y-105335771D02*
X101690477Y-105431009D01*
X101690477Y-105431009D02*
X101690477Y-105954819D01*
X100785715Y-105288152D02*
X100785715Y-106097676D01*
X100785715Y-106097676D02*
X100833334Y-106192914D01*
X100833334Y-106192914D02*
X100880953Y-106240533D01*
X100880953Y-106240533D02*
X100976191Y-106288152D01*
X100976191Y-106288152D02*
X101119048Y-106288152D01*
X101119048Y-106288152D02*
X101214286Y-106240533D01*
X100785715Y-105907200D02*
X100880953Y-105954819D01*
X100880953Y-105954819D02*
X101071429Y-105954819D01*
X101071429Y-105954819D02*
X101166667Y-105907200D01*
X101166667Y-105907200D02*
X101214286Y-105859580D01*
X101214286Y-105859580D02*
X101261905Y-105764342D01*
X101261905Y-105764342D02*
X101261905Y-105478628D01*
X101261905Y-105478628D02*
X101214286Y-105383390D01*
X101214286Y-105383390D02*
X101166667Y-105335771D01*
X101166667Y-105335771D02*
X101071429Y-105288152D01*
X101071429Y-105288152D02*
X100880953Y-105288152D01*
X100880953Y-105288152D02*
X100785715Y-105335771D01*
X99166667Y-105907200D02*
X99261905Y-105954819D01*
X99261905Y-105954819D02*
X99452381Y-105954819D01*
X99452381Y-105954819D02*
X99547619Y-105907200D01*
X99547619Y-105907200D02*
X99595238Y-105811961D01*
X99595238Y-105811961D02*
X99595238Y-105431009D01*
X99595238Y-105431009D02*
X99547619Y-105335771D01*
X99547619Y-105335771D02*
X99452381Y-105288152D01*
X99452381Y-105288152D02*
X99261905Y-105288152D01*
X99261905Y-105288152D02*
X99166667Y-105335771D01*
X99166667Y-105335771D02*
X99119048Y-105431009D01*
X99119048Y-105431009D02*
X99119048Y-105526247D01*
X99119048Y-105526247D02*
X99595238Y-105621485D01*
X98261905Y-105954819D02*
X98261905Y-104954819D01*
X98261905Y-105907200D02*
X98357143Y-105954819D01*
X98357143Y-105954819D02*
X98547619Y-105954819D01*
X98547619Y-105954819D02*
X98642857Y-105907200D01*
X98642857Y-105907200D02*
X98690476Y-105859580D01*
X98690476Y-105859580D02*
X98738095Y-105764342D01*
X98738095Y-105764342D02*
X98738095Y-105478628D01*
X98738095Y-105478628D02*
X98690476Y-105383390D01*
X98690476Y-105383390D02*
X98642857Y-105335771D01*
X98642857Y-105335771D02*
X98547619Y-105288152D01*
X98547619Y-105288152D02*
X98357143Y-105288152D01*
X98357143Y-105288152D02*
X98261905Y-105335771D01*
X97357143Y-105288152D02*
X97357143Y-106097676D01*
X97357143Y-106097676D02*
X97404762Y-106192914D01*
X97404762Y-106192914D02*
X97452381Y-106240533D01*
X97452381Y-106240533D02*
X97547619Y-106288152D01*
X97547619Y-106288152D02*
X97690476Y-106288152D01*
X97690476Y-106288152D02*
X97785714Y-106240533D01*
X97357143Y-105907200D02*
X97452381Y-105954819D01*
X97452381Y-105954819D02*
X97642857Y-105954819D01*
X97642857Y-105954819D02*
X97738095Y-105907200D01*
X97738095Y-105907200D02*
X97785714Y-105859580D01*
X97785714Y-105859580D02*
X97833333Y-105764342D01*
X97833333Y-105764342D02*
X97833333Y-105478628D01*
X97833333Y-105478628D02*
X97785714Y-105383390D01*
X97785714Y-105383390D02*
X97738095Y-105335771D01*
X97738095Y-105335771D02*
X97642857Y-105288152D01*
X97642857Y-105288152D02*
X97452381Y-105288152D01*
X97452381Y-105288152D02*
X97357143Y-105335771D01*
X96500000Y-105907200D02*
X96595238Y-105954819D01*
X96595238Y-105954819D02*
X96785714Y-105954819D01*
X96785714Y-105954819D02*
X96880952Y-105907200D01*
X96880952Y-105907200D02*
X96928571Y-105811961D01*
X96928571Y-105811961D02*
X96928571Y-105431009D01*
X96928571Y-105431009D02*
X96880952Y-105335771D01*
X96880952Y-105335771D02*
X96785714Y-105288152D01*
X96785714Y-105288152D02*
X96595238Y-105288152D01*
X96595238Y-105288152D02*
X96500000Y-105335771D01*
X96500000Y-105335771D02*
X96452381Y-105431009D01*
X96452381Y-105431009D02*
X96452381Y-105526247D01*
X96452381Y-105526247D02*
X96928571Y-105621485D01*
X96071428Y-105907200D02*
X95976190Y-105954819D01*
X95976190Y-105954819D02*
X95785714Y-105954819D01*
X95785714Y-105954819D02*
X95690476Y-105907200D01*
X95690476Y-105907200D02*
X95642857Y-105811961D01*
X95642857Y-105811961D02*
X95642857Y-105764342D01*
X95642857Y-105764342D02*
X95690476Y-105669104D01*
X95690476Y-105669104D02*
X95785714Y-105621485D01*
X95785714Y-105621485D02*
X95928571Y-105621485D01*
X95928571Y-105621485D02*
X96023809Y-105573866D01*
X96023809Y-105573866D02*
X96071428Y-105478628D01*
X96071428Y-105478628D02*
X96071428Y-105431009D01*
X96071428Y-105431009D02*
X96023809Y-105335771D01*
X96023809Y-105335771D02*
X95928571Y-105288152D01*
X95928571Y-105288152D02*
X95785714Y-105288152D01*
X95785714Y-105288152D02*
X95690476Y-105335771D01*
X95309523Y-106335771D02*
X95261904Y-106288152D01*
X95261904Y-106288152D02*
X95166666Y-106145295D01*
X95166666Y-106145295D02*
X95119047Y-106050057D01*
X95119047Y-106050057D02*
X95071428Y-105907200D01*
X95071428Y-105907200D02*
X95023809Y-105669104D01*
X95023809Y-105669104D02*
X95023809Y-105478628D01*
X95023809Y-105478628D02*
X95071428Y-105240533D01*
X95071428Y-105240533D02*
X95119047Y-105097676D01*
X95119047Y-105097676D02*
X95166666Y-105002438D01*
X95166666Y-105002438D02*
X95261904Y-104859580D01*
X95261904Y-104859580D02*
X95309523Y-104811961D01*
X93928570Y-105288152D02*
X93547618Y-105288152D01*
X93785713Y-104954819D02*
X93785713Y-105811961D01*
X93785713Y-105811961D02*
X93738094Y-105907200D01*
X93738094Y-105907200D02*
X93642856Y-105954819D01*
X93642856Y-105954819D02*
X93547618Y-105954819D01*
X93071427Y-105954819D02*
X93166665Y-105907200D01*
X93166665Y-105907200D02*
X93214284Y-105859580D01*
X93214284Y-105859580D02*
X93261903Y-105764342D01*
X93261903Y-105764342D02*
X93261903Y-105478628D01*
X93261903Y-105478628D02*
X93214284Y-105383390D01*
X93214284Y-105383390D02*
X93166665Y-105335771D01*
X93166665Y-105335771D02*
X93071427Y-105288152D01*
X93071427Y-105288152D02*
X92928570Y-105288152D01*
X92928570Y-105288152D02*
X92833332Y-105335771D01*
X92833332Y-105335771D02*
X92785713Y-105383390D01*
X92785713Y-105383390D02*
X92738094Y-105478628D01*
X92738094Y-105478628D02*
X92738094Y-105764342D01*
X92738094Y-105764342D02*
X92785713Y-105859580D01*
X92785713Y-105859580D02*
X92833332Y-105907200D01*
X92833332Y-105907200D02*
X92928570Y-105954819D01*
X92928570Y-105954819D02*
X93071427Y-105954819D01*
X91547617Y-105954819D02*
X91547617Y-105288152D01*
X91547617Y-105478628D02*
X91499998Y-105383390D01*
X91499998Y-105383390D02*
X91452379Y-105335771D01*
X91452379Y-105335771D02*
X91357141Y-105288152D01*
X91357141Y-105288152D02*
X91261903Y-105288152D01*
X90499998Y-105954819D02*
X90499998Y-105431009D01*
X90499998Y-105431009D02*
X90547617Y-105335771D01*
X90547617Y-105335771D02*
X90642855Y-105288152D01*
X90642855Y-105288152D02*
X90833331Y-105288152D01*
X90833331Y-105288152D02*
X90928569Y-105335771D01*
X90499998Y-105907200D02*
X90595236Y-105954819D01*
X90595236Y-105954819D02*
X90833331Y-105954819D01*
X90833331Y-105954819D02*
X90928569Y-105907200D01*
X90928569Y-105907200D02*
X90976188Y-105811961D01*
X90976188Y-105811961D02*
X90976188Y-105716723D01*
X90976188Y-105716723D02*
X90928569Y-105621485D01*
X90928569Y-105621485D02*
X90833331Y-105573866D01*
X90833331Y-105573866D02*
X90595236Y-105573866D01*
X90595236Y-105573866D02*
X90499998Y-105526247D01*
X90023807Y-105954819D02*
X90023807Y-105288152D01*
X90023807Y-104954819D02*
X90071426Y-105002438D01*
X90071426Y-105002438D02*
X90023807Y-105050057D01*
X90023807Y-105050057D02*
X89976188Y-105002438D01*
X89976188Y-105002438D02*
X90023807Y-104954819D01*
X90023807Y-104954819D02*
X90023807Y-105050057D01*
X89595236Y-105907200D02*
X89499998Y-105954819D01*
X89499998Y-105954819D02*
X89309522Y-105954819D01*
X89309522Y-105954819D02*
X89214284Y-105907200D01*
X89214284Y-105907200D02*
X89166665Y-105811961D01*
X89166665Y-105811961D02*
X89166665Y-105764342D01*
X89166665Y-105764342D02*
X89214284Y-105669104D01*
X89214284Y-105669104D02*
X89309522Y-105621485D01*
X89309522Y-105621485D02*
X89452379Y-105621485D01*
X89452379Y-105621485D02*
X89547617Y-105573866D01*
X89547617Y-105573866D02*
X89595236Y-105478628D01*
X89595236Y-105478628D02*
X89595236Y-105431009D01*
X89595236Y-105431009D02*
X89547617Y-105335771D01*
X89547617Y-105335771D02*
X89452379Y-105288152D01*
X89452379Y-105288152D02*
X89309522Y-105288152D01*
X89309522Y-105288152D02*
X89214284Y-105335771D01*
X88357141Y-105907200D02*
X88452379Y-105954819D01*
X88452379Y-105954819D02*
X88642855Y-105954819D01*
X88642855Y-105954819D02*
X88738093Y-105907200D01*
X88738093Y-105907200D02*
X88785712Y-105811961D01*
X88785712Y-105811961D02*
X88785712Y-105431009D01*
X88785712Y-105431009D02*
X88738093Y-105335771D01*
X88738093Y-105335771D02*
X88642855Y-105288152D01*
X88642855Y-105288152D02*
X88452379Y-105288152D01*
X88452379Y-105288152D02*
X88357141Y-105335771D01*
X88357141Y-105335771D02*
X88309522Y-105431009D01*
X88309522Y-105431009D02*
X88309522Y-105526247D01*
X88309522Y-105526247D02*
X88785712Y-105621485D01*
X87261902Y-105288152D02*
X86880950Y-105288152D01*
X87119045Y-105954819D02*
X87119045Y-105097676D01*
X87119045Y-105097676D02*
X87071426Y-105002438D01*
X87071426Y-105002438D02*
X86976188Y-104954819D01*
X86976188Y-104954819D02*
X86880950Y-104954819D01*
D11*
X124749998Y-99182228D02*
X125464284Y-99182228D01*
X125464284Y-99182228D02*
X125535712Y-99896514D01*
X125535712Y-99896514D02*
X125464284Y-99825085D01*
X125464284Y-99825085D02*
X125321427Y-99753657D01*
X125321427Y-99753657D02*
X124964284Y-99753657D01*
X124964284Y-99753657D02*
X124821427Y-99825085D01*
X124821427Y-99825085D02*
X124749998Y-99896514D01*
X124749998Y-99896514D02*
X124678569Y-100039371D01*
X124678569Y-100039371D02*
X124678569Y-100396514D01*
X124678569Y-100396514D02*
X124749998Y-100539371D01*
X124749998Y-100539371D02*
X124821427Y-100610800D01*
X124821427Y-100610800D02*
X124964284Y-100682228D01*
X124964284Y-100682228D02*
X125321427Y-100682228D01*
X125321427Y-100682228D02*
X125464284Y-100610800D01*
X125464284Y-100610800D02*
X125535712Y-100539371D01*
X124035713Y-100539371D02*
X123964284Y-100610800D01*
X123964284Y-100610800D02*
X124035713Y-100682228D01*
X124035713Y-100682228D02*
X124107141Y-100610800D01*
X124107141Y-100610800D02*
X124035713Y-100539371D01*
X124035713Y-100539371D02*
X124035713Y-100682228D01*
X123107141Y-99825085D02*
X123249998Y-99753657D01*
X123249998Y-99753657D02*
X123321427Y-99682228D01*
X123321427Y-99682228D02*
X123392855Y-99539371D01*
X123392855Y-99539371D02*
X123392855Y-99467942D01*
X123392855Y-99467942D02*
X123321427Y-99325085D01*
X123321427Y-99325085D02*
X123249998Y-99253657D01*
X123249998Y-99253657D02*
X123107141Y-99182228D01*
X123107141Y-99182228D02*
X122821427Y-99182228D01*
X122821427Y-99182228D02*
X122678570Y-99253657D01*
X122678570Y-99253657D02*
X122607141Y-99325085D01*
X122607141Y-99325085D02*
X122535712Y-99467942D01*
X122535712Y-99467942D02*
X122535712Y-99539371D01*
X122535712Y-99539371D02*
X122607141Y-99682228D01*
X122607141Y-99682228D02*
X122678570Y-99753657D01*
X122678570Y-99753657D02*
X122821427Y-99825085D01*
X122821427Y-99825085D02*
X123107141Y-99825085D01*
X123107141Y-99825085D02*
X123249998Y-99896514D01*
X123249998Y-99896514D02*
X123321427Y-99967942D01*
X123321427Y-99967942D02*
X123392855Y-100110800D01*
X123392855Y-100110800D02*
X123392855Y-100396514D01*
X123392855Y-100396514D02*
X123321427Y-100539371D01*
X123321427Y-100539371D02*
X123249998Y-100610800D01*
X123249998Y-100610800D02*
X123107141Y-100682228D01*
X123107141Y-100682228D02*
X122821427Y-100682228D01*
X122821427Y-100682228D02*
X122678570Y-100610800D01*
X122678570Y-100610800D02*
X122607141Y-100539371D01*
X122607141Y-100539371D02*
X122535712Y-100396514D01*
X122535712Y-100396514D02*
X122535712Y-100110800D01*
X122535712Y-100110800D02*
X122607141Y-99967942D01*
X122607141Y-99967942D02*
X122678570Y-99896514D01*
X122678570Y-99896514D02*
X122821427Y-99825085D01*
X119964284Y-99253657D02*
X120107142Y-99182228D01*
X120107142Y-99182228D02*
X120321427Y-99182228D01*
X120321427Y-99182228D02*
X120535713Y-99253657D01*
X120535713Y-99253657D02*
X120678570Y-99396514D01*
X120678570Y-99396514D02*
X120749999Y-99539371D01*
X120749999Y-99539371D02*
X120821427Y-99825085D01*
X120821427Y-99825085D02*
X120821427Y-100039371D01*
X120821427Y-100039371D02*
X120749999Y-100325085D01*
X120749999Y-100325085D02*
X120678570Y-100467942D01*
X120678570Y-100467942D02*
X120535713Y-100610800D01*
X120535713Y-100610800D02*
X120321427Y-100682228D01*
X120321427Y-100682228D02*
X120178570Y-100682228D01*
X120178570Y-100682228D02*
X119964284Y-100610800D01*
X119964284Y-100610800D02*
X119892856Y-100539371D01*
X119892856Y-100539371D02*
X119892856Y-100039371D01*
X119892856Y-100039371D02*
X120178570Y-100039371D01*
X119249999Y-100682228D02*
X119249999Y-99182228D01*
X119249999Y-99896514D02*
X118392856Y-99896514D01*
X118392856Y-100682228D02*
X118392856Y-99182228D01*
X117821427Y-99682228D02*
X117035713Y-99682228D01*
X117035713Y-99682228D02*
X117821427Y-100682228D01*
X117821427Y-100682228D02*
X117035713Y-100682228D01*
X115392855Y-99325085D02*
X115321427Y-99253657D01*
X115321427Y-99253657D02*
X115178570Y-99182228D01*
X115178570Y-99182228D02*
X114821427Y-99182228D01*
X114821427Y-99182228D02*
X114678570Y-99253657D01*
X114678570Y-99253657D02*
X114607141Y-99325085D01*
X114607141Y-99325085D02*
X114535712Y-99467942D01*
X114535712Y-99467942D02*
X114535712Y-99610800D01*
X114535712Y-99610800D02*
X114607141Y-99825085D01*
X114607141Y-99825085D02*
X115464284Y-100682228D01*
X115464284Y-100682228D02*
X114535712Y-100682228D01*
X114035713Y-100682228D02*
X113249999Y-99682228D01*
X114035713Y-99682228D02*
X113249999Y-100682228D01*
X112749998Y-99325085D02*
X112678570Y-99253657D01*
X112678570Y-99253657D02*
X112535713Y-99182228D01*
X112535713Y-99182228D02*
X112178570Y-99182228D01*
X112178570Y-99182228D02*
X112035713Y-99253657D01*
X112035713Y-99253657D02*
X111964284Y-99325085D01*
X111964284Y-99325085D02*
X111892855Y-99467942D01*
X111892855Y-99467942D02*
X111892855Y-99610800D01*
X111892855Y-99610800D02*
X111964284Y-99825085D01*
X111964284Y-99825085D02*
X112821427Y-100682228D01*
X112821427Y-100682228D02*
X111892855Y-100682228D01*
X110107142Y-99682228D02*
X110107142Y-101182228D01*
X110107142Y-99753657D02*
X109964285Y-99682228D01*
X109964285Y-99682228D02*
X109678570Y-99682228D01*
X109678570Y-99682228D02*
X109535713Y-99753657D01*
X109535713Y-99753657D02*
X109464285Y-99825085D01*
X109464285Y-99825085D02*
X109392856Y-99967942D01*
X109392856Y-99967942D02*
X109392856Y-100396514D01*
X109392856Y-100396514D02*
X109464285Y-100539371D01*
X109464285Y-100539371D02*
X109535713Y-100610800D01*
X109535713Y-100610800D02*
X109678570Y-100682228D01*
X109678570Y-100682228D02*
X109964285Y-100682228D01*
X109964285Y-100682228D02*
X110107142Y-100610800D01*
X108107142Y-100682228D02*
X108107142Y-99896514D01*
X108107142Y-99896514D02*
X108178570Y-99753657D01*
X108178570Y-99753657D02*
X108321427Y-99682228D01*
X108321427Y-99682228D02*
X108607142Y-99682228D01*
X108607142Y-99682228D02*
X108749999Y-99753657D01*
X108107142Y-100610800D02*
X108249999Y-100682228D01*
X108249999Y-100682228D02*
X108607142Y-100682228D01*
X108607142Y-100682228D02*
X108749999Y-100610800D01*
X108749999Y-100610800D02*
X108821427Y-100467942D01*
X108821427Y-100467942D02*
X108821427Y-100325085D01*
X108821427Y-100325085D02*
X108749999Y-100182228D01*
X108749999Y-100182228D02*
X108607142Y-100110800D01*
X108607142Y-100110800D02*
X108249999Y-100110800D01*
X108249999Y-100110800D02*
X108107142Y-100039371D01*
X107607141Y-99682228D02*
X107035713Y-99682228D01*
X107392856Y-99182228D02*
X107392856Y-100467942D01*
X107392856Y-100467942D02*
X107321427Y-100610800D01*
X107321427Y-100610800D02*
X107178570Y-100682228D01*
X107178570Y-100682228D02*
X107035713Y-100682228D01*
X105892856Y-100610800D02*
X106035713Y-100682228D01*
X106035713Y-100682228D02*
X106321427Y-100682228D01*
X106321427Y-100682228D02*
X106464284Y-100610800D01*
X106464284Y-100610800D02*
X106535713Y-100539371D01*
X106535713Y-100539371D02*
X106607141Y-100396514D01*
X106607141Y-100396514D02*
X106607141Y-99967942D01*
X106607141Y-99967942D02*
X106535713Y-99825085D01*
X106535713Y-99825085D02*
X106464284Y-99753657D01*
X106464284Y-99753657D02*
X106321427Y-99682228D01*
X106321427Y-99682228D02*
X106035713Y-99682228D01*
X106035713Y-99682228D02*
X105892856Y-99753657D01*
X105249999Y-100682228D02*
X105249999Y-99182228D01*
X104607142Y-100682228D02*
X104607142Y-99896514D01*
X104607142Y-99896514D02*
X104678570Y-99753657D01*
X104678570Y-99753657D02*
X104821427Y-99682228D01*
X104821427Y-99682228D02*
X105035713Y-99682228D01*
X105035713Y-99682228D02*
X105178570Y-99753657D01*
X105178570Y-99753657D02*
X105249999Y-99825085D01*
X102107142Y-100682228D02*
X102107142Y-99896514D01*
X102107142Y-99896514D02*
X102178570Y-99753657D01*
X102178570Y-99753657D02*
X102321427Y-99682228D01*
X102321427Y-99682228D02*
X102607142Y-99682228D01*
X102607142Y-99682228D02*
X102749999Y-99753657D01*
X102107142Y-100610800D02*
X102249999Y-100682228D01*
X102249999Y-100682228D02*
X102607142Y-100682228D01*
X102607142Y-100682228D02*
X102749999Y-100610800D01*
X102749999Y-100610800D02*
X102821427Y-100467942D01*
X102821427Y-100467942D02*
X102821427Y-100325085D01*
X102821427Y-100325085D02*
X102749999Y-100182228D01*
X102749999Y-100182228D02*
X102607142Y-100110800D01*
X102607142Y-100110800D02*
X102249999Y-100110800D01*
X102249999Y-100110800D02*
X102107142Y-100039371D01*
X101392856Y-100682228D02*
X101392856Y-99682228D01*
X101392856Y-99967942D02*
X101321427Y-99825085D01*
X101321427Y-99825085D02*
X101249999Y-99753657D01*
X101249999Y-99753657D02*
X101107141Y-99682228D01*
X101107141Y-99682228D02*
X100964284Y-99682228D01*
X100464285Y-100682228D02*
X100464285Y-99682228D01*
X100464285Y-99967942D02*
X100392856Y-99825085D01*
X100392856Y-99825085D02*
X100321428Y-99753657D01*
X100321428Y-99753657D02*
X100178570Y-99682228D01*
X100178570Y-99682228D02*
X100035713Y-99682228D01*
X98892857Y-100682228D02*
X98892857Y-99896514D01*
X98892857Y-99896514D02*
X98964285Y-99753657D01*
X98964285Y-99753657D02*
X99107142Y-99682228D01*
X99107142Y-99682228D02*
X99392857Y-99682228D01*
X99392857Y-99682228D02*
X99535714Y-99753657D01*
X98892857Y-100610800D02*
X99035714Y-100682228D01*
X99035714Y-100682228D02*
X99392857Y-100682228D01*
X99392857Y-100682228D02*
X99535714Y-100610800D01*
X99535714Y-100610800D02*
X99607142Y-100467942D01*
X99607142Y-100467942D02*
X99607142Y-100325085D01*
X99607142Y-100325085D02*
X99535714Y-100182228D01*
X99535714Y-100182228D02*
X99392857Y-100110800D01*
X99392857Y-100110800D02*
X99035714Y-100110800D01*
X99035714Y-100110800D02*
X98892857Y-100039371D01*
X98321428Y-99682228D02*
X97964285Y-100682228D01*
X97607142Y-99682228D02*
X97964285Y-100682228D01*
X97964285Y-100682228D02*
X98107142Y-101039371D01*
X98107142Y-101039371D02*
X98178571Y-101110800D01*
X98178571Y-101110800D02*
X98321428Y-101182228D01*
X94321428Y-99182228D02*
X94321428Y-100253657D01*
X94321428Y-100253657D02*
X94392857Y-100467942D01*
X94392857Y-100467942D02*
X94535714Y-100610800D01*
X94535714Y-100610800D02*
X94750000Y-100682228D01*
X94750000Y-100682228D02*
X94892857Y-100682228D01*
X92892857Y-100682228D02*
X93607143Y-100682228D01*
X93607143Y-100682228D02*
X93607143Y-99182228D01*
X91535714Y-100539371D02*
X91607142Y-100610800D01*
X91607142Y-100610800D02*
X91821428Y-100682228D01*
X91821428Y-100682228D02*
X91964285Y-100682228D01*
X91964285Y-100682228D02*
X92178571Y-100610800D01*
X92178571Y-100610800D02*
X92321428Y-100467942D01*
X92321428Y-100467942D02*
X92392857Y-100325085D01*
X92392857Y-100325085D02*
X92464285Y-100039371D01*
X92464285Y-100039371D02*
X92464285Y-99825085D01*
X92464285Y-99825085D02*
X92392857Y-99539371D01*
X92392857Y-99539371D02*
X92321428Y-99396514D01*
X92321428Y-99396514D02*
X92178571Y-99253657D01*
X92178571Y-99253657D02*
X91964285Y-99182228D01*
X91964285Y-99182228D02*
X91821428Y-99182228D01*
X91821428Y-99182228D02*
X91607142Y-99253657D01*
X91607142Y-99253657D02*
X91535714Y-99325085D01*
X89250000Y-99896514D02*
X89750000Y-99896514D01*
X89750000Y-100682228D02*
X89750000Y-99182228D01*
X89750000Y-99182228D02*
X89035714Y-99182228D01*
X87607143Y-100682228D02*
X88107143Y-99967942D01*
X88464286Y-100682228D02*
X88464286Y-99182228D01*
X88464286Y-99182228D02*
X87892857Y-99182228D01*
X87892857Y-99182228D02*
X87750000Y-99253657D01*
X87750000Y-99253657D02*
X87678571Y-99325085D01*
X87678571Y-99325085D02*
X87607143Y-99467942D01*
X87607143Y-99467942D02*
X87607143Y-99682228D01*
X87607143Y-99682228D02*
X87678571Y-99825085D01*
X87678571Y-99825085D02*
X87750000Y-99896514D01*
X87750000Y-99896514D02*
X87892857Y-99967942D01*
X87892857Y-99967942D02*
X88464286Y-99967942D01*
X86964286Y-100110800D02*
X85821429Y-100110800D01*
X84464286Y-99682228D02*
X84464286Y-100682228D01*
X84821428Y-99110800D02*
X85178571Y-100182228D01*
X85178571Y-100182228D02*
X84250000Y-100182228D01*
X81750000Y-100682228D02*
X82607143Y-100682228D01*
X82178572Y-100682228D02*
X82178572Y-99182228D01*
X82178572Y-99182228D02*
X82321429Y-99396514D01*
X82321429Y-99396514D02*
X82464286Y-99539371D01*
X82464286Y-99539371D02*
X82607143Y-99610800D01*
X81107144Y-100539371D02*
X81035715Y-100610800D01*
X81035715Y-100610800D02*
X81107144Y-100682228D01*
X81107144Y-100682228D02*
X81178572Y-100610800D01*
X81178572Y-100610800D02*
X81107144Y-100539371D01*
X81107144Y-100539371D02*
X81107144Y-100682228D01*
X79750001Y-99182228D02*
X80035715Y-99182228D01*
X80035715Y-99182228D02*
X80178572Y-99253657D01*
X80178572Y-99253657D02*
X80250001Y-99325085D01*
X80250001Y-99325085D02*
X80392858Y-99539371D01*
X80392858Y-99539371D02*
X80464286Y-99825085D01*
X80464286Y-99825085D02*
X80464286Y-100396514D01*
X80464286Y-100396514D02*
X80392858Y-100539371D01*
X80392858Y-100539371D02*
X80321429Y-100610800D01*
X80321429Y-100610800D02*
X80178572Y-100682228D01*
X80178572Y-100682228D02*
X79892858Y-100682228D01*
X79892858Y-100682228D02*
X79750001Y-100610800D01*
X79750001Y-100610800D02*
X79678572Y-100539371D01*
X79678572Y-100539371D02*
X79607143Y-100396514D01*
X79607143Y-100396514D02*
X79607143Y-100039371D01*
X79607143Y-100039371D02*
X79678572Y-99896514D01*
X79678572Y-99896514D02*
X79750001Y-99825085D01*
X79750001Y-99825085D02*
X79892858Y-99753657D01*
X79892858Y-99753657D02*
X80178572Y-99753657D01*
X80178572Y-99753657D02*
X80321429Y-99825085D01*
X80321429Y-99825085D02*
X80392858Y-99896514D01*
X80392858Y-99896514D02*
X80464286Y-100039371D01*
X77821430Y-100682228D02*
X77821430Y-99682228D01*
X77821430Y-99825085D02*
X77750001Y-99753657D01*
X77750001Y-99753657D02*
X77607144Y-99682228D01*
X77607144Y-99682228D02*
X77392858Y-99682228D01*
X77392858Y-99682228D02*
X77250001Y-99753657D01*
X77250001Y-99753657D02*
X77178573Y-99896514D01*
X77178573Y-99896514D02*
X77178573Y-100682228D01*
X77178573Y-99896514D02*
X77107144Y-99753657D01*
X77107144Y-99753657D02*
X76964287Y-99682228D01*
X76964287Y-99682228D02*
X76750001Y-99682228D01*
X76750001Y-99682228D02*
X76607144Y-99753657D01*
X76607144Y-99753657D02*
X76535715Y-99896514D01*
X76535715Y-99896514D02*
X76535715Y-100682228D01*
X75821430Y-100682228D02*
X75821430Y-99682228D01*
X75821430Y-99825085D02*
X75750001Y-99753657D01*
X75750001Y-99753657D02*
X75607144Y-99682228D01*
X75607144Y-99682228D02*
X75392858Y-99682228D01*
X75392858Y-99682228D02*
X75250001Y-99753657D01*
X75250001Y-99753657D02*
X75178573Y-99896514D01*
X75178573Y-99896514D02*
X75178573Y-100682228D01*
X75178573Y-99896514D02*
X75107144Y-99753657D01*
X75107144Y-99753657D02*
X74964287Y-99682228D01*
X74964287Y-99682228D02*
X74750001Y-99682228D01*
X74750001Y-99682228D02*
X74607144Y-99753657D01*
X74607144Y-99753657D02*
X74535715Y-99896514D01*
X74535715Y-99896514D02*
X74535715Y-100682228D01*
%LPC*%
D12*
%TO.C,H1*%
X54000000Y-54000000D03*
%TD*%
%TO.C,H4*%
X146000000Y-146000000D03*
%TD*%
%TO.C,H3*%
X54000000Y-146000000D03*
%TD*%
%TO.C,H2*%
X146000000Y-54000000D03*
%TD*%
D13*
%TO.C,J1*%
X104250000Y-147460000D03*
X95750000Y-147460000D03*
%TD*%
%LPD*%
M02*
