%TF.GenerationSoftware,KiCad,Pcbnew,10.0.6*%
%TF.CreationDate,2026-09-25T14:55:58+08:00*%
%TF.ProjectId,patch_2x2_5g8,70617463-685f-4327-9832-5f3567382e6b,rev?*%
%TF.SameCoordinates,Original*%
%TF.FileFunction,Copper,L1,Top*%
%TF.FilePolarity,Positive*%
%FSLAX46Y46*%
G04 Gerber Fmt 4.6, Leading zero omitted, Abs format (unit mm)*
G04 Created by KiCad (PCBNEW 10.0.6) date 2026-09-25 14:55:58*
%MOMM*%
%LPD*%
G01*
G04 APERTURE LIST*
%TA.AperFunction,Conductor*%
%ADD10C,0.000000*%
%TD*%
%TA.AperFunction,SMDPad,CuDef*%
%ADD11R,1.500000X5.080000*%
%TD*%
%TA.AperFunction,ViaPad*%
%ADD12C,0.800000*%
%TD*%
G04 APERTURE END LIST*
D10*
%TA.AperFunction,Conductor*%
%TO.N,RF*%
G36*
X82345000Y-96015000D02*
G01*
X81655000Y-96015000D01*
X81655000Y-87990000D01*
X82345000Y-87990000D01*
X82345000Y-96015000D01*
G37*
%TD.AperFunction*%
%TA.AperFunction,Conductor*%
G36*
X118345000Y-96015000D02*
G01*
X81655000Y-96015000D01*
X81655000Y-95325000D01*
X118345000Y-95325000D01*
X118345000Y-96015000D01*
G37*
%TD.AperFunction*%
%TA.AperFunction,Conductor*%
G36*
X82345000Y-124585000D02*
G01*
X81655000Y-124585000D01*
X81655000Y-116560000D01*
X82345000Y-116560000D01*
X82345000Y-124585000D01*
G37*
%TD.AperFunction*%
%TA.AperFunction,Conductor*%
G36*
X118345000Y-124585000D02*
G01*
X81655000Y-124585000D01*
X81655000Y-123895000D01*
X118345000Y-123895000D01*
X118345000Y-124585000D01*
G37*
%TD.AperFunction*%
%TA.AperFunction,Conductor*%
%TO.N,GND*%
G36*
X96500000Y-149700000D02*
G01*
X90500000Y-149700000D01*
X90500000Y-141000000D01*
X96500000Y-141000000D01*
X96500000Y-149700000D01*
G37*
%TD.AperFunction*%
%TA.AperFunction,Conductor*%
%TO.N,RF*%
G36*
X102500000Y-131220000D02*
G01*
X97500000Y-131220000D01*
X97500000Y-124240000D01*
X102500000Y-124240000D01*
X102500000Y-131220000D01*
G37*
%TD.AperFunction*%
%TA.AperFunction,Conductor*%
G36*
X101470000Y-124240000D02*
G01*
X98530000Y-124240000D01*
X98530000Y-94200000D01*
X101470000Y-94200000D01*
X101470000Y-124240000D01*
G37*
%TD.AperFunction*%
%TA.AperFunction,Conductor*%
G36*
X101470000Y-147460000D02*
G01*
X98530000Y-147460000D01*
X98530000Y-131220000D01*
X101470000Y-131220000D01*
X101470000Y-147460000D01*
G37*
%TD.AperFunction*%
%TA.AperFunction,Conductor*%
%TO.N,GND*%
G36*
X109500000Y-149700000D02*
G01*
X103500000Y-149700000D01*
X103500000Y-141000000D01*
X109500000Y-141000000D01*
X109500000Y-149700000D01*
G37*
%TD.AperFunction*%
%TA.AperFunction,Conductor*%
%TO.N,RF*%
G36*
X118345000Y-96015000D02*
G01*
X117655000Y-96015000D01*
X117655000Y-87990000D01*
X118345000Y-87990000D01*
X118345000Y-96015000D01*
G37*
%TD.AperFunction*%
%TA.AperFunction,Conductor*%
G36*
X118345000Y-124585000D02*
G01*
X117655000Y-124585000D01*
X117655000Y-116560000D01*
X118345000Y-116560000D01*
X118345000Y-124585000D01*
G37*
%TD.AperFunction*%
%TA.AperFunction,Conductor*%
G36*
X89930000Y-91670000D02*
G01*
X83145000Y-91670000D01*
X83145000Y-87990000D01*
X80855000Y-87990000D01*
X80855000Y-91670000D01*
X74070000Y-91670000D01*
X74070000Y-79759999D01*
X89930000Y-79759999D01*
X89930000Y-91670000D01*
G37*
%TD.AperFunction*%
%TA.AperFunction,Conductor*%
G36*
X89930000Y-120240000D02*
G01*
X83145000Y-120240000D01*
X83145000Y-116560000D01*
X80855000Y-116560000D01*
X80855000Y-120240000D01*
X74070000Y-120240000D01*
X74070000Y-108330000D01*
X89930000Y-108330000D01*
X89930000Y-120240000D01*
G37*
%TD.AperFunction*%
%TA.AperFunction,Conductor*%
G36*
X125930000Y-91670000D02*
G01*
X119145000Y-91670000D01*
X119145000Y-87990000D01*
X116855000Y-87990000D01*
X116855000Y-91670000D01*
X110070000Y-91670000D01*
X110070000Y-79759999D01*
X125930000Y-79759999D01*
X125930000Y-91670000D01*
G37*
%TD.AperFunction*%
%TA.AperFunction,Conductor*%
G36*
X125930000Y-120240000D02*
G01*
X119145000Y-120240000D01*
X119145000Y-116560000D01*
X116855000Y-116560000D01*
X116855000Y-120240000D01*
X110070000Y-120240000D01*
X110070000Y-108330000D01*
X125930000Y-108330000D01*
X125930000Y-120240000D01*
G37*
%TD.AperFunction*%
%TD*%
D11*
%TO.P,J1,1*%
%TO.N,RF*%
X100000000Y-147460000D03*
%TO.P,J1,2*%
%TO.N,GND*%
X104250000Y-147460000D03*
X95750000Y-147460000D03*
%TD*%
D12*
%TO.N,GND*%
X94200000Y-142200000D03*
X92100000Y-148200000D03*
X105800000Y-144200000D03*
X92100000Y-146200000D03*
X107900000Y-146200000D03*
X92100000Y-144200000D03*
X94200000Y-148200000D03*
X107900000Y-144200000D03*
X94200000Y-146200000D03*
X105800000Y-148200000D03*
X105800000Y-146200000D03*
X94200000Y-144200000D03*
X105800000Y-142200000D03*
X92100000Y-142200000D03*
X107900000Y-148200000D03*
X107900000Y-142200000D03*
%TD*%
M02*
