%TF.GenerationSoftware,KiCad,Pcbnew,10.0.6*%
%TF.CreationDate,2026-09-25T14:55:58+08:00*%
%TF.ProjectId,patch_2x2_5g8,70617463-685f-4327-9832-5f3567382e6b,rev?*%
%TF.SameCoordinates,Original*%
%TF.FileFunction,Copper,L2,Bot*%
%TF.FilePolarity,Positive*%
%FSLAX46Y46*%
G04 Gerber Fmt 4.6, Leading zero omitted, Abs format (unit mm)*
G04 Created by KiCad (PCBNEW 10.0.6) date 2026-09-25 14:55:58*
%MOMM*%
%LPD*%
G01*
G04 APERTURE LIST*
%TA.AperFunction,SMDPad,CuDef*%
%ADD10R,1.500000X5.080000*%
%TD*%
%TA.AperFunction,ViaPad*%
%ADD11C,0.800000*%
%TD*%
G04 APERTURE END LIST*
D10*
%TO.P,J1,2*%
%TO.N,GND*%
X104250000Y-147460000D03*
X95750000Y-147460000D03*
%TD*%
D11*
%TO.N,GND*%
X94200000Y-142200000D03*
X92100000Y-148200000D03*
X105800000Y-144200000D03*
X92100000Y-146200000D03*
X107900000Y-146200000D03*
X92100000Y-144200000D03*
X94200000Y-148200000D03*
X107900000Y-144200000D03*
X94200000Y-146200000D03*
X105800000Y-148200000D03*
X105800000Y-146200000D03*
X94200000Y-144200000D03*
X105800000Y-142200000D03*
X92100000Y-142200000D03*
X107900000Y-148200000D03*
X107900000Y-142200000D03*
%TD*%
%TA.AperFunction,Conductor*%
%TO.N,GND*%
G36*
X149643039Y-50319685D02*
G01*
X149688794Y-50372489D01*
X149700000Y-50424000D01*
X149700000Y-149576000D01*
X149680315Y-149643039D01*
X149627511Y-149688794D01*
X149576000Y-149700000D01*
X50424000Y-149700000D01*
X50356961Y-149680315D01*
X50311206Y-149627511D01*
X50300000Y-149576000D01*
X50300000Y-145878711D01*
X52149500Y-145878711D01*
X52149500Y-146121288D01*
X52181161Y-146361785D01*
X52243947Y-146596104D01*
X52336773Y-146820205D01*
X52336776Y-146820212D01*
X52458064Y-147030289D01*
X52458066Y-147030292D01*
X52458067Y-147030293D01*
X52605733Y-147222736D01*
X52605739Y-147222743D01*
X52777256Y-147394260D01*
X52777262Y-147394265D01*
X52969711Y-147541936D01*
X53179788Y-147663224D01*
X53403900Y-147756054D01*
X53638211Y-147818838D01*
X53818586Y-147842584D01*
X53878711Y-147850500D01*
X53878712Y-147850500D01*
X54121289Y-147850500D01*
X54169388Y-147844167D01*
X54361789Y-147818838D01*
X54596100Y-147756054D01*
X54820212Y-147663224D01*
X55030289Y-147541936D01*
X55222738Y-147394265D01*
X55394265Y-147222738D01*
X55541936Y-147030289D01*
X55663224Y-146820212D01*
X55756054Y-146596100D01*
X55818838Y-146361789D01*
X55850500Y-146121288D01*
X55850500Y-145878712D01*
X55850500Y-145878711D01*
X144149500Y-145878711D01*
X144149500Y-146121288D01*
X144181161Y-146361785D01*
X144243947Y-146596104D01*
X144336773Y-146820205D01*
X144336776Y-146820212D01*
X144458064Y-147030289D01*
X144458066Y-147030292D01*
X144458067Y-147030293D01*
X144605733Y-147222736D01*
X144605739Y-147222743D01*
X144777256Y-147394260D01*
X144777262Y-147394265D01*
X144969711Y-147541936D01*
X145179788Y-147663224D01*
X145403900Y-147756054D01*
X145638211Y-147818838D01*
X145818586Y-147842584D01*
X145878711Y-147850500D01*
X145878712Y-147850500D01*
X146121289Y-147850500D01*
X146169388Y-147844167D01*
X146361789Y-147818838D01*
X146596100Y-147756054D01*
X146820212Y-147663224D01*
X147030289Y-147541936D01*
X147222738Y-147394265D01*
X147394265Y-147222738D01*
X147541936Y-147030289D01*
X147663224Y-146820212D01*
X147756054Y-146596100D01*
X147818838Y-146361789D01*
X147850500Y-146121288D01*
X147850500Y-145878712D01*
X147818838Y-145638211D01*
X147756054Y-145403900D01*
X147663224Y-145179788D01*
X147541936Y-144969711D01*
X147394265Y-144777262D01*
X147394260Y-144777256D01*
X147222743Y-144605739D01*
X147222736Y-144605733D01*
X147030293Y-144458067D01*
X147030292Y-144458066D01*
X147030289Y-144458064D01*
X146820212Y-144336776D01*
X146820205Y-144336773D01*
X146596104Y-144243947D01*
X146361785Y-144181161D01*
X146121289Y-144149500D01*
X146121288Y-144149500D01*
X145878712Y-144149500D01*
X145878711Y-144149500D01*
X145638214Y-144181161D01*
X145403895Y-144243947D01*
X145179794Y-144336773D01*
X145179785Y-144336777D01*
X144969706Y-144458067D01*
X144777263Y-144605733D01*
X144777256Y-144605739D01*
X144605739Y-144777256D01*
X144605733Y-144777263D01*
X144458067Y-144969706D01*
X144336777Y-145179785D01*
X144336773Y-145179794D01*
X144243947Y-145403895D01*
X144181161Y-145638214D01*
X144149500Y-145878711D01*
X55850500Y-145878711D01*
X55818838Y-145638211D01*
X55756054Y-145403900D01*
X55663224Y-145179788D01*
X55541936Y-144969711D01*
X55394265Y-144777262D01*
X55394260Y-144777256D01*
X55222743Y-144605739D01*
X55222736Y-144605733D01*
X55030293Y-144458067D01*
X55030292Y-144458066D01*
X55030289Y-144458064D01*
X54820212Y-144336776D01*
X54820205Y-144336773D01*
X54596104Y-144243947D01*
X54361785Y-144181161D01*
X54121289Y-144149500D01*
X54121288Y-144149500D01*
X53878712Y-144149500D01*
X53878711Y-144149500D01*
X53638214Y-144181161D01*
X53403895Y-144243947D01*
X53179794Y-144336773D01*
X53179785Y-144336777D01*
X52969706Y-144458067D01*
X52777263Y-144605733D01*
X52777256Y-144605739D01*
X52605739Y-144777256D01*
X52605733Y-144777263D01*
X52458067Y-144969706D01*
X52336777Y-145179785D01*
X52336773Y-145179794D01*
X52243947Y-145403895D01*
X52181161Y-145638214D01*
X52149500Y-145878711D01*
X50300000Y-145878711D01*
X50300000Y-53878711D01*
X52149500Y-53878711D01*
X52149500Y-54121288D01*
X52181161Y-54361785D01*
X52243947Y-54596104D01*
X52336773Y-54820205D01*
X52336776Y-54820212D01*
X52458064Y-55030289D01*
X52458066Y-55030292D01*
X52458067Y-55030293D01*
X52605733Y-55222736D01*
X52605739Y-55222743D01*
X52777256Y-55394260D01*
X52777262Y-55394265D01*
X52969711Y-55541936D01*
X53179788Y-55663224D01*
X53403900Y-55756054D01*
X53638211Y-55818838D01*
X53818586Y-55842584D01*
X53878711Y-55850500D01*
X53878712Y-55850500D01*
X54121289Y-55850500D01*
X54169388Y-55844167D01*
X54361789Y-55818838D01*
X54596100Y-55756054D01*
X54820212Y-55663224D01*
X55030289Y-55541936D01*
X55222738Y-55394265D01*
X55394265Y-55222738D01*
X55541936Y-55030289D01*
X55663224Y-54820212D01*
X55756054Y-54596100D01*
X55818838Y-54361789D01*
X55850500Y-54121288D01*
X55850500Y-53878712D01*
X55850500Y-53878711D01*
X144149500Y-53878711D01*
X144149500Y-54121288D01*
X144181161Y-54361785D01*
X144243947Y-54596104D01*
X144336773Y-54820205D01*
X144336776Y-54820212D01*
X144458064Y-55030289D01*
X144458066Y-55030292D01*
X144458067Y-55030293D01*
X144605733Y-55222736D01*
X144605739Y-55222743D01*
X144777256Y-55394260D01*
X144777262Y-55394265D01*
X144969711Y-55541936D01*
X145179788Y-55663224D01*
X145403900Y-55756054D01*
X145638211Y-55818838D01*
X145818586Y-55842584D01*
X145878711Y-55850500D01*
X145878712Y-55850500D01*
X146121289Y-55850500D01*
X146169388Y-55844167D01*
X146361789Y-55818838D01*
X146596100Y-55756054D01*
X146820212Y-55663224D01*
X147030289Y-55541936D01*
X147222738Y-55394265D01*
X147394265Y-55222738D01*
X147541936Y-55030289D01*
X147663224Y-54820212D01*
X147756054Y-54596100D01*
X147818838Y-54361789D01*
X147850500Y-54121288D01*
X147850500Y-53878712D01*
X147818838Y-53638211D01*
X147756054Y-53403900D01*
X147663224Y-53179788D01*
X147541936Y-52969711D01*
X147394265Y-52777262D01*
X147394260Y-52777256D01*
X147222743Y-52605739D01*
X147222736Y-52605733D01*
X147030293Y-52458067D01*
X147030292Y-52458066D01*
X147030289Y-52458064D01*
X146820212Y-52336776D01*
X146820205Y-52336773D01*
X146596104Y-52243947D01*
X146361785Y-52181161D01*
X146121289Y-52149500D01*
X146121288Y-52149500D01*
X145878712Y-52149500D01*
X145878711Y-52149500D01*
X145638214Y-52181161D01*
X145403895Y-52243947D01*
X145179794Y-52336773D01*
X145179785Y-52336777D01*
X144969706Y-52458067D01*
X144777263Y-52605733D01*
X144777256Y-52605739D01*
X144605739Y-52777256D01*
X144605733Y-52777263D01*
X144458067Y-52969706D01*
X144336777Y-53179785D01*
X144336773Y-53179794D01*
X144243947Y-53403895D01*
X144181161Y-53638214D01*
X144149500Y-53878711D01*
X55850500Y-53878711D01*
X55818838Y-53638211D01*
X55756054Y-53403900D01*
X55663224Y-53179788D01*
X55541936Y-52969711D01*
X55394265Y-52777262D01*
X55394260Y-52777256D01*
X55222743Y-52605739D01*
X55222736Y-52605733D01*
X55030293Y-52458067D01*
X55030292Y-52458066D01*
X55030289Y-52458064D01*
X54820212Y-52336776D01*
X54820205Y-52336773D01*
X54596104Y-52243947D01*
X54361785Y-52181161D01*
X54121289Y-52149500D01*
X54121288Y-52149500D01*
X53878712Y-52149500D01*
X53878711Y-52149500D01*
X53638214Y-52181161D01*
X53403895Y-52243947D01*
X53179794Y-52336773D01*
X53179785Y-52336777D01*
X52969706Y-52458067D01*
X52777263Y-52605733D01*
X52777256Y-52605739D01*
X52605739Y-52777256D01*
X52605733Y-52777263D01*
X52458067Y-52969706D01*
X52336777Y-53179785D01*
X52336773Y-53179794D01*
X52243947Y-53403895D01*
X52181161Y-53638214D01*
X52149500Y-53878711D01*
X50300000Y-53878711D01*
X50300000Y-50424000D01*
X50319685Y-50356961D01*
X50372489Y-50311206D01*
X50424000Y-50300000D01*
X149576000Y-50300000D01*
X149643039Y-50319685D01*
G37*
%TD.AperFunction*%
%TD*%
M02*
